<?xml version="1.0" encoding="UTF-8"?>
<svg width="623" height="652" viewBox="0 0 623 652" version="1.1" xmlns="http://www.w3.org/2000/svg" xmlns:xlink="http://www.w3.org/1999/xlink">
    <title>Oval 2 Copy 4</title>
    <desc>Created with Sketch.</desc>
    <defs></defs>
    <g fill="#E8FAFF" opacity=".7">
        <path d="M463.149 214.627c-12.197-17.778-27.742-30.082-48.238-36.263-14.306-4.315-28.921-7.296-43.453-10.624-12.117-2.769-24.06-6.866-36.44-7.77-25.26-1.845-50.56-3.58-75.927-2.003-5.714.353-11.4.857-16.91 2.433-46.73 13.376-79.532 43.042-98.332 87.839-12.553 29.908-14.342 61.644-10.694 93.636 1.516 13.302 5.34 26.167 13.653 36.919 9.468 12.246 19.59 23.976 31.003 34.475 5.417 4.98 10.821 9.958 18.217 11.948 7.62 2.053 15.172 4.362 22.781 6.46 3.022.833 4.178 2.342 3.758 5.712-2.672 21.463-4.284 42.979-1.612 64.572 1.489 12.008 3.075 24.03 8.878 34.946 3.808 7.165 9.439 10.744 17.764 10.6 16.425-.279 32.86-.084 49.29-.084 5.578 0 11.151.067 16.725-.01 12.463-.172 24.947.585 37.39-.414 7.572-.608 12.923-4.406 14.849-12.176 1.829-7.363 4.797-14.314 5.287-22.178.693-11.185 2.319-22.333 2.975-33.548a4249.24 4249.24 0 0 0 1.826-33.225c.186-3.7 1.359-5.932 5.367-7.263 16.517-5.494 32.875-11.446 48.48-19.341 31.094-15.732 50.82-40.656 59.202-74.597 4.997-20.219 2.199-40.666.053-60.891-2.668-25.166-11.47-48.127-25.892-69.153M348.678 582.483c-1.755-.057-3.518.024-5.277-.006-20.106-.36-40.108 2.712-56.786 1.899-10.92 0-18.407-.128-25.883.033-8.835.192-12.427 3.657-13.53 12.408-.482 3.825-.759 7.656-.622 11.508.766 20.904 9.901 31.507 30.224 34.754 17.45 2.79 35.114 1.381 52.655 2.487 10.011.629 17.177-4.026 22.105-12.462 7.216-12.354 9.974-25.717 8.455-39.984-.8-7.528-3.805-10.391-11.34-10.637M92.333 260.162c-2.156-1.39-4.834-.662-6.75-1.818-4.944-2.98-10.38-4.423-15.788-6.03-2.602-.769-4.7-2.096-6.437-4.318a129.813 129.813 0 0 1-7.872-11.269c-2.609-4.184-5.257-8.341-7.736-12.277-3.328-3.149-8.149-2.705-11.457.753-1.916 1.996-2.102 5.021-3.675 6.95-3.828 4.689-5.79 10.17-7.879 15.658-2.155 5.67-5.497 10.24-10.807 13.43-2.852 1.71-5.86 3.603-7.596 6.6-1.686 2.901-2.18 6.524-5.274 8.561-.25.168-.3.659-.423 1.005-2.073 5.696 1.062 11.363 7.04 12.62 2.694.564 5.51.937 8.178.427 4.285-.82 7.206 1.015 9.782 4.056 1.01 1.19 2.262 2.212 3.081 3.516 1.383 2.184 3.708 3.912 3.542 6.926-.19 3.438.343 6.742 1.336 10.07 1.04 3.488 2.488 6.59 6.276 7.195 3.302.527 6.387 2.144 9.818 1.878.087-.006.17-.07.257-.087 4.964-.776 6.94-4.658 8.635-8.674 1.486-3.522 1.066-7.263.477-10.913-.36-2.208.396-3.835 1.632-5.559 3.918-5.464 8.699-10.183 12.893-15.416 2.609-3.256 6.08-5.995 10.801-6.274 2.815-.168 5.527-1.153 7.983-2.666 5.513-3.407 5.417-10.821-.037-14.344M270.96 60.167c3.934 2.642 8.195 5.22 13.326 5.065 2.372-.07 4.754.067 7.12-.084 1.062-.067 1.748.191 2.315 1.028 3.671 5.405 8.322 10.315 8.339 17.52.01 3.748 3.111 6.107 4.407 9.31 1.036 2.567.96 5.75 3.868 7.578.973 1.267 2.559 2.064 4.018 2.981 3.478 2.192 7.273 2.847 10.874.629 3.582-2.208 4.708-5.949 3.812-9.898-.93-4.086-.63-8.096.083-12.035 1.106-6.106 2.832-12.021 8.988-15.2 2.51-1.298 4.888-2.868 7.43-4.084 2.832-1.351 5.537-2.978 9.002-2.635 2.838.282 4.887-1.805 5.767-4.9.226-.787.27-1.677.68-2.346 2.001-3.277 1.132-7.007-2.93-10.308-3.647-2.964-8.115-3.592-12.47-4.527-4.92-1.055-9.48-2.769-12.856-6.742-1.539-1.811-3.055-3.676-4.31-5.69-2.413-3.858-5.86-7.188-6.864-11.786-.83-3.798-2.395-6.735-5.687-8.956-4.417-2.978-9.678-2.057-12.623 2.396-2.742 4.15-2.579 8.694-2.262 13.326.09 1.324.456 2.715-.973 3.754-4.954 3.61-10.074 6.9-15.612 9.581-5.33 2.578-9.464 6.924-14.062 10.577-.61.487-1.023 1.317-1.343 2.07-2.252 5.327-2.925 10.1 1.963 13.376M622.594 269.946a11.353 11.353 0 0 0-9.575-8.284c-2.285-.282-4.59-.34-6.836.017-2.615.413-4.55-.541-6.457-2.171-4.657-3.99-7.655-9.034-9.88-14.694-2.193-5.582-3.756-11.356-8.366-15.88-3.748-3.68-7.283-5.713-11.471-3.76-3.535 1.65-6.263 5.757-5.507 10.704.573 3.734.903 7.505 1.266 11.262.333 3.482-.956 5.592-4.128 6.876-4.218 1.707-8.309 3.75-12.783 4.793-1.51.346-3.002 1.011-3.905 2.383-1.715 2.594-3.584 5.132-4.92 7.921-1.896 3.96-.243 8.664 3.451 11.003 1.843 1.17 3.665 2.366 5.534 3.496 2.222 1.34 4.72 2.224 7.216 1.677 1.71-.37 2.782-.034 3.921 1.028 3.342 3.105 5.45 7.112 7.8 10.93.746 1.206 1.862 2.335 1.838 3.925-.06 3.986 1.753 7.064 3.962 9.101 3.768 3.895 6.603 4.221 10.594 1.751.62-.386 1.23-.83 1.902-1.072 6.903-2.47 8.56-4.998 7.993-12.267-.383-4.873 2.152-9.494 6.486-11.618 4.98-2.444 9.862-5.028 15.252-6.645 5.387-1.61 7.82-6.05 6.613-10.476M535.29 109.401c-3.649-2.964-8.12-3.596-12.467-4.53-4.921-1.052-9.485-2.766-12.86-6.742-1.536-1.811-3.055-3.673-4.311-5.686-2.412-3.859-5.86-7.196-6.863-11.787-.826-3.798-2.396-6.738-5.687-8.957-4.418-2.977-9.678-2.06-12.623 2.397-2.742 4.147-2.579 8.69-2.263 13.325.09 1.321.457 2.716-.969 3.754-4.957 3.61-10.078 6.9-15.612 9.582-5.33 2.578-9.468 6.923-14.065 10.573-.61.488-1.023 1.321-1.34 2.07-2.255 5.33-2.925 10.1 1.96 13.38 3.934 2.638 8.195 5.216 13.325 5.065 2.372-.07 4.755.067 7.12-.088 1.063-.063 1.749.192 2.315 1.029 3.672 5.407 8.323 10.318 8.34 17.523.01 3.748 3.11 6.107 4.407 9.31 1.04 2.567.96 5.747 3.868 7.578.973 1.267 2.558 2.06 4.018 2.981 3.478 2.192 7.27 2.844 10.874.629 3.585-2.212 4.71-5.952 3.811-9.898-.926-4.09-.626-8.096.083-12.038 1.106-6.107 2.832-12.022 8.989-15.201 2.509-1.298 4.887-2.864 7.43-4.08 2.831-1.355 5.536-2.978 9.001-2.635 2.839.279 4.888-1.805 5.77-4.9.224-.79.267-1.677.677-2.35 2.002-3.276 1.132-7.007-2.929-10.304M133.107 165.423c.973 1.263 2.558 2.057 4.018 2.978 3.478 2.19 7.27 2.843 10.87.625 3.585-2.205 4.711-5.946 3.815-9.891-.93-4.09-.63-8.097.083-12.039 1.103-6.11 2.829-12.021 8.986-15.204 2.508-1.294 4.887-2.864 7.432-4.077 2.832-1.358 5.537-2.978 9.002-2.638 2.839.279 4.884-1.805 5.767-4.904.223-.783.27-1.677.68-2.342 1.999-3.277 1.13-7.007-2.932-10.304-3.645-2.965-8.116-3.6-12.467-4.53-4.92-1.053-9.485-2.77-12.856-6.742-1.54-1.812-3.059-3.677-4.315-5.687-2.412-3.862-5.86-7.196-6.86-11.786-.829-3.802-2.398-6.739-5.686-8.957-4.421-2.981-9.682-2.06-12.627 2.396-2.742 4.148-2.575 8.691-2.262 13.323.09 1.32.46 2.712-.97 3.757-4.957 3.61-10.074 6.9-15.611 9.575-5.33 2.584-9.465 6.93-14.062 10.58-.61.484-1.027 1.317-1.343 2.067-2.252 5.333-2.925 10.102 1.959 13.383 3.934 2.638 8.199 5.212 13.33 5.06 2.371-.07 4.754.068 7.116-.083 1.062-.064 1.749.191 2.318 1.028 3.668 5.408 8.32 10.315 8.34 17.524.01 3.747 3.108 6.106 4.404 9.306 1.039 2.567.959 5.75 3.87 7.582"/>
    </g>
</svg>
