<?xml version="1.0" encoding="UTF-8"?>
<svg width="9px" height="15px" viewBox="0 0 9 15" version="1.1" xmlns="http://www.w3.org/2000/svg" xmlns:xlink="http://www.w3.org/1999/xlink">
    <!-- Generator: Sketch 48.2 (47327) - http://www.bohemiancoding.com/sketch -->
    <title>down chevron</title>
    <desc>Created with Sketch.</desc>
    <defs></defs>
    <g id="Demos" stroke="none" stroke-width="1" fill="none" fill-rule="evenodd" transform="translate(-631.000000, -495.000000)">
        <path d="M636.505909,506.576667 C636.230867,506.85913 635.887592,507 635.474677,507 C635.096933,507 634.769837,506.85913 634.494794,506.576667 L628.412212,500.594365 C628.137169,500.311902 628,499.959364 628,499.535308 C628,499.111252 628.137169,498.758714 628.412212,498.476251 C629.030529,497.84125 629.717783,497.84125 630.473973,498.476251 L635.473973,503.399495 L640.526027,498.476251 C641.282217,497.84125 641.969471,497.84125 642.587788,498.476251 C642.862831,498.758714 643,499.120643 643,499.561315 C643,500.020047 642.862831,500.363916 642.587788,500.593643 L636.505909,506.576667 Z" id="down-chevron" fill="#D3D6D9" transform="translate(635.500000, 502.500000) rotate(-90.000000) translate(-635.500000, -502.500000) "></path>
    </g>
</svg>