<?xml version="1.0" encoding="UTF-8"?>
<svg width="24" height="19" viewBox="0 0 24 19" xmlns="http://www.w3.org/2000/svg"><path d="M23.71 1.623c-.051.778-.428 1.405-.884 1.997-.419.546-.966.957-1.481 1.403-1.226 1.062-2.32 2.247-3.39 3.46-.624.708-1.296 1.375-1.963 2.043-1.438 1.442-2.761 2.986-4.058 4.554-.347.419-.724.813-1.087 1.221-.241.272-.38.607-.564.915-.26.435-.521.866-.909 1.205-.594.519-1.508.445-1.909-.231-.938-1.582-2.123-2.965-3.331-4.34-.736-.838-1.297-1.818-1.983-2.701-.488-.629-.96-1.27-1.554-1.81-.999-.908-.704-2.227.58-2.737.474-.188.987-.368 1.516-.121.38.177.7.43.933.771.852 1.249 1.867 2.36 2.877 3.48.72.802 1.394 1.647 2.078 2.48.162.197.243.185.393-.02.672-.92 1.444-1.757 2.21-2.6 1.144-1.261 2.248-2.557 3.37-3.837.7-.798 1.418-1.58 2.09-2.4.3-.363.65-.688.883-1.11.158-.29.49-.424.714-.67.563-.619 1.103-1.26 1.756-1.793.49-.4 1.021-.7 1.67-.771.836-.092 1.74.418 1.98 1.13.054.163.047.325.064.482" fill="#000"></path></svg>
